# xmcd
#
# Track frame offsets:
#	150
#	14349
#	25961
#	45359
#	58708
#	76080
#	89890
#	104887
#	117447
#	129857
#	144009
#	156167
#
# Disc length: 2355 seconds
#
# Revision: 1
# Processed by: cddbd v1.5.1PL0 Copyright (c) Steve Scherf et al.
# Submitted via: audiograbber 1.83.01
#
DISCID=9809310c
DTITLE=Various Artist - Yesterday - La cancion Francesa
DYEAR=1900
DGENRE=
TTITLE0=Edith Piaf - La vie en rose
TTITLE1=Georges Moustaki - Le meteque
TTITLE2=Alain Barriere - Ma vie
TTITLE3=Johnny Halliday - Retiens la nuit
TTITLE4=Herve Vilard - Capri c'est fini
TTITLE5=Adamo - Mis manos en tu cintura
TTITLE6=Michel Fugain - Une belle histoire
TTITLE7=Joe Dassin - A ti
TTITLE8=Frida Boccara - Un jour, un enfant
TTITLE9=Marie Myriam - L'oiseau et l'enfant
TTITLE10=Anne Marie David - Tu te reconnaitras
TTITLE11=Mari Trini - Ne me quitte pas
EXTD=
EXTT0=
EXTT1=
EXTT2=
EXTT3=
EXTT4=
EXTT5=
EXTT6=
EXTT7=
EXTT8=
EXTT9=
EXTT10=
EXTT11=
PLAYORDER=
